<svg width="128" height="62" class="dark:fill-white" viewBox="0 0 128 62" fill="none" xmlns="http://www.w3.org/2000/svg">
<path d="M3.39581 21.5088C2.31641 21.5088 1.54946 21.3005 1.09498 20.8839C0.659425 20.4483 0.44165 19.8139 0.44165 18.9807C0.44165 18.7535 0.451119 18.3747 0.470056 17.8445C0.50793 17.2953 0.555272 16.6515 0.612083 15.9129C0.668894 15.1744 0.725705 14.3696 0.782515 13.4985C0.858263 12.6084 0.934011 11.7089 1.00976 10.7999C1.16125 8.88731 1.26541 7.33448 1.32222 6.14145C1.39797 4.94842 1.45478 4.01104 1.49265 3.32931C1.54946 2.47715 1.60627 1.93745 1.66308 1.7102C1.71989 1.46402 1.84298 1.34093 2.03235 1.34093C2.6194 1.34093 3.21591 1.33146 3.8219 1.31253C4.44682 1.27465 5.04333 1.23678 5.61144 1.1989C6.17955 1.16103 6.70978 1.13263 7.20214 1.11369C7.71344 1.07581 8.16793 1.05688 8.5656 1.05688C9.77757 1.05688 10.8191 1.20837 11.6902 1.51136C12.5613 1.81436 13.262 2.24044 13.7922 2.78961C14.3414 3.33878 14.739 4.00157 14.9852 4.77799C15.2503 5.5544 15.3829 6.4255 15.3829 7.39129C15.3829 8.86837 15.0894 10.1845 14.5023 11.3396C13.9153 12.4948 12.9779 13.3754 11.6902 13.9813L14.0763 17.39C14.5118 18.0339 14.8432 18.5357 15.0704 18.8955C15.2977 19.2364 15.4113 19.492 15.4113 19.6624C15.4113 19.795 15.3261 19.9844 15.1557 20.2305C15.0042 20.4578 14.7675 20.6945 14.4455 20.9407C14.1425 21.1679 13.7638 21.3668 13.3093 21.5372C12.8738 21.7076 12.3814 21.7928 11.8322 21.7928C11.2262 21.7928 10.696 21.594 10.2415 21.1963C9.80597 20.7986 9.4083 20.2779 9.04849 19.634C8.70763 18.9712 8.40464 18.2138 8.13952 17.3616C7.89334 16.5094 7.65663 15.6194 7.42939 14.6915C6.74766 14.6536 6.18902 14.5873 5.75347 14.4926C5.69665 15.3259 5.63984 16.1212 5.58303 16.8787C5.52622 17.6362 5.47888 18.3179 5.44101 18.9239C5.40313 19.5109 5.36526 20.0033 5.32738 20.401C5.28951 20.7797 5.27057 21.007 5.27057 21.0827C5.25164 21.2342 5.21376 21.3478 5.15695 21.4236C5.10014 21.4804 4.98652 21.5088 4.81609 21.5088H3.39581ZM7.99749 5.31769C7.77025 5.31769 7.5146 5.33663 7.23055 5.3745C6.94649 5.39344 6.6435 5.42185 6.32157 5.45972C6.2837 6.12251 6.23636 6.91786 6.17955 7.84577C6.14167 8.75475 6.08486 9.73 6.00911 10.7715C6.67191 10.923 7.24948 10.9988 7.74185 10.9988C8.32889 10.9988 8.80231 10.8852 9.16212 10.6579C9.54086 10.4307 9.83438 10.1561 10.0427 9.83415C10.251 9.49329 10.3835 9.13349 10.4404 8.75475C10.5161 8.37601 10.554 8.03514 10.554 7.73215C10.554 6.95574 10.3646 6.35922 9.98587 5.94261C9.60713 5.526 8.94434 5.31769 7.99749 5.31769Z" fill="black"/>
<path d="M16.8369 18.0149C16.8369 16.3106 17.6039 14.9755 19.1377 14.0098C20.6716 13.044 22.9346 12.5232 25.9266 12.4475C25.9456 12.2391 25.955 12.0687 25.955 11.9362C25.974 11.7847 25.9835 11.6048 25.9835 11.3965C25.9835 10.7905 25.8698 10.3076 25.6426 9.94778C25.4153 9.58797 24.9419 9.40807 24.2223 9.40807C23.8246 9.40807 23.5027 9.46488 23.2565 9.57851C23.0104 9.69213 22.8115 9.85309 22.66 10.0614C22.5085 10.2508 22.3854 10.4875 22.2907 10.7715C22.1961 11.0556 22.1108 11.368 22.0351 11.7089C21.9972 11.8793 21.912 11.993 21.7794 12.0498C21.6469 12.0877 21.4386 12.1066 21.1545 12.1066C19.223 12.1066 18.2572 11.3775 18.2572 9.91937C18.2572 9.33233 18.3897 8.77369 18.6549 8.24345C18.9389 7.71322 19.3461 7.25873 19.8763 6.87999C20.4255 6.48231 21.1072 6.16985 21.9215 5.94261C22.7358 5.71537 23.6826 5.60175 24.762 5.60175C26.864 5.60175 28.3884 6.0373 29.3353 6.9084C30.2821 7.7795 30.7556 9.0104 30.7556 10.6011C30.7556 10.8094 30.7272 11.1881 30.6703 11.7373C30.6325 12.2676 30.5757 12.8357 30.4999 13.4416C30.4431 14.0287 30.3863 14.5873 30.3295 15.1176C30.2916 15.6478 30.2727 16.0171 30.2727 16.2254C30.2727 16.6988 30.3579 17.0397 30.5283 17.248C30.6988 17.4373 30.8881 17.5699 31.0964 17.6456C31.3237 17.7214 31.5225 17.7782 31.6929 17.8161C31.8634 17.854 31.9486 17.9486 31.9486 18.1001C31.9486 18.5167 31.8918 18.9428 31.7782 19.3784C31.6645 19.8139 31.4752 20.2116 31.2101 20.5714C30.9639 20.9312 30.6135 21.2247 30.159 21.452C29.7235 21.6792 29.1838 21.7928 28.5399 21.7928C27.631 21.7928 26.9492 21.5751 26.4947 21.1395C26.0403 20.704 25.7373 20.098 25.5858 19.3216C25.1313 19.9844 24.5348 20.5619 23.7962 21.0543C23.0766 21.5467 22.1298 21.7928 20.9557 21.7928C20.3876 21.7928 19.8479 21.7266 19.3366 21.594C18.8442 21.4614 18.4087 21.2437 18.0299 20.9407C17.6701 20.6377 17.3766 20.2495 17.1494 19.7761C16.9411 19.2837 16.8369 18.6966 16.8369 18.0149ZM25.671 14.7767C25.1786 14.7767 24.6957 14.8146 24.2223 14.8903C23.7489 14.9661 23.3228 15.0892 22.9441 15.2596C22.5843 15.4111 22.2907 15.6194 22.0635 15.8845C21.8363 16.1496 21.7226 16.4716 21.7226 16.8503C21.7226 17.2858 21.8552 17.5888 22.1203 17.7593C22.4044 17.9297 22.7074 18.0149 23.0293 18.0149C23.3323 18.0149 23.6353 17.9486 23.9383 17.8161C24.2413 17.6835 24.5064 17.4847 24.7336 17.2196C24.9798 16.9355 25.1881 16.5946 25.3585 16.197C25.529 15.7993 25.6331 15.3259 25.671 14.7767Z" fill="black"/>
<path d="M43.3811 19.0091C43.3811 18.5925 43.4095 18.0528 43.4663 17.39C43.5421 16.7083 43.6084 15.9981 43.6652 15.2596C43.7409 14.5021 43.8072 13.773 43.864 13.0724C43.9398 12.3717 43.9776 11.7847 43.9776 11.3112C43.9776 10.8189 43.8545 10.3833 43.6084 10.0046C43.3811 9.60691 42.9266 9.40807 42.2449 9.40807C41.5821 9.40807 41.0329 9.56904 40.5974 9.89097C40.1618 10.2129 39.7926 10.7999 39.4896 11.6521C39.2055 12.5043 38.9688 13.6784 38.7794 15.1744C38.5901 16.6704 38.4102 18.5925 38.2397 20.9407C38.2208 21.1679 38.1735 21.3194 38.0977 21.3952C38.022 21.4709 37.861 21.5088 37.6148 21.5088H36.5922C36.0052 21.5088 35.5223 21.452 35.1435 21.3384C34.7837 21.2058 34.4902 21.0259 34.263 20.7986C34.0547 20.5714 33.9032 20.2968 33.8085 19.9749C33.7327 19.634 33.6949 19.2458 33.6949 18.8103C33.6949 18.5262 33.7043 18.1285 33.7233 17.6172C33.7611 17.087 33.818 16.3674 33.8937 15.4584C33.9695 14.5305 34.0547 13.3659 34.1494 11.9646C34.263 10.5443 34.3955 8.79262 34.547 6.70956C34.566 6.29294 34.6133 6.04676 34.6891 5.97102C34.7459 5.91421 34.8974 5.8858 35.1435 5.8858H36.2514C36.8195 5.8858 37.2834 5.95208 37.6432 6.08464C38.022 6.2172 38.3249 6.3971 38.5522 6.62434C38.7794 6.83265 38.9404 7.0883 39.0351 7.39129C39.1298 7.67534 39.1866 7.96886 39.2055 8.27186C39.7926 7.2682 40.4648 6.577 41.2223 6.19826C41.9798 5.80058 42.9266 5.60175 44.0628 5.60175C44.8582 5.60175 45.5494 5.68696 46.1364 5.8574C46.7235 6.02783 47.2064 6.32135 47.5851 6.73796C47.9828 7.13564 48.2763 7.66587 48.4657 8.32867C48.6551 8.97252 48.7497 9.77734 48.7497 10.7431C48.7497 11.0461 48.7308 11.4817 48.6929 12.0498C48.6551 12.6179 48.6077 13.2428 48.5509 13.9245C48.4941 14.5873 48.4278 15.288 48.3521 16.0265C48.2953 16.7461 48.2384 17.4184 48.1816 18.0433C48.1248 18.6682 48.0775 19.2174 48.0396 19.6908C48.0017 20.1643 47.9828 20.4767 47.9828 20.6282C47.9828 21.0448 47.9355 21.3005 47.8408 21.3952C47.7461 21.4709 47.5378 21.5088 47.2159 21.5088H46.3069C45.7009 21.5088 45.2085 21.452 44.8298 21.3384C44.4511 21.2247 44.1575 21.0638 43.9492 20.8555C43.7409 20.6472 43.5894 20.3915 43.4947 20.0885C43.419 19.7666 43.3811 19.4068 43.3811 19.0091Z" fill="black"/>
<path d="M56.48 21.7928C55.7415 21.7928 55.0313 21.6603 54.3496 21.3952C53.6868 21.13 53.0998 20.7134 52.5885 20.1453C52.0961 19.5772 51.6984 18.8576 51.3954 17.9865C51.1114 17.1154 50.9694 16.0644 50.9694 14.8335C50.9694 14.2843 51.0072 13.6784 51.083 13.0156C51.1587 12.3338 51.2913 11.6521 51.4807 10.9704C51.67 10.2886 51.9351 9.62585 52.276 8.98199C52.6169 8.33814 53.043 7.77003 53.5543 7.27767C54.0845 6.76637 54.7094 6.35922 55.429 6.05623C56.1675 5.75324 57.0292 5.60175 58.0139 5.60175C58.9608 5.60175 59.7182 5.77218 60.2863 6.11304C60.8734 6.43497 61.2427 7.00308 61.3941 7.81737C61.432 7.07883 61.4699 6.43497 61.5078 5.8858C61.5456 5.33663 61.5741 4.82533 61.593 4.35191C61.6309 3.87848 61.6687 3.40506 61.7066 2.93164C61.7445 2.45821 61.7824 1.91851 61.8202 1.31253C61.8392 0.895913 61.8865 0.649733 61.9623 0.573985C62.0001 0.536111 62.0475 0.517175 62.1043 0.517175C62.1611 0.498238 62.2652 0.48877 62.4167 0.48877H63.5246C64.0927 0.48877 64.5661 0.555049 64.9448 0.687607C65.3236 0.820166 65.6266 1.00007 65.8538 1.22731C66.081 1.45455 66.242 1.71967 66.3367 2.02266C66.4314 2.30672 66.4787 2.60971 66.4787 2.93164C66.4787 2.93164 66.4598 3.16835 66.4219 3.64177C66.384 4.1152 66.3367 4.74958 66.2799 5.54493C66.2231 6.32135 66.1568 7.21139 66.081 8.21504C66.0053 9.2187 65.9296 10.2602 65.8538 11.3396C65.7781 12.4001 65.7023 13.4606 65.6266 14.5211C65.5508 15.5626 65.4751 16.5284 65.3993 17.4184C65.3236 18.2895 65.2573 19.047 65.2005 19.6908C65.1626 20.3158 65.1342 20.7324 65.1153 20.9407C65.0774 21.1679 65.03 21.3194 64.9732 21.3952C64.9164 21.4709 64.7555 21.5088 64.4903 21.5088H63.4677C63.0701 21.5088 62.6913 21.4804 62.3315 21.4236C61.9907 21.3478 61.6877 21.2342 61.4226 21.0827C61.1764 20.9123 60.9775 20.6945 60.826 20.4294C60.6935 20.1453 60.6272 19.7855 60.6272 19.35C60.2863 20.0696 59.7656 20.6566 59.0649 21.1111C58.3832 21.5656 57.5215 21.7928 56.48 21.7928ZM58.9513 9.37967C57.9855 9.37967 57.2659 9.80575 56.7925 10.6579C56.338 11.4911 56.1107 12.6179 56.1107 14.0382C56.1107 14.5305 56.1391 15.0134 56.196 15.4868C56.2717 15.9603 56.3948 16.3863 56.5652 16.7651C56.7357 17.1438 56.9629 17.4468 57.247 17.6741C57.55 17.9013 57.9287 18.0149 58.3832 18.0149C59.1975 18.0149 59.8792 17.6172 60.4284 16.8219C60.9775 16.0265 61.2521 14.7767 61.2521 13.0724C61.2521 12.5989 61.2237 12.1445 61.1669 11.7089C61.1101 11.2544 60.9965 10.8567 60.826 10.5159C60.6556 10.175 60.4189 9.90043 60.1159 9.69213C59.8129 9.48382 59.4247 9.37967 58.9513 9.37967Z" fill="black"/>
<path d="M74.9265 21.7928C73.6198 21.7928 72.5309 21.6129 71.6598 21.2531C70.8077 20.8744 70.1259 20.3631 69.6146 19.7192C69.1033 19.0754 68.7435 18.3274 68.5352 17.4752C68.3269 16.6041 68.2228 15.6762 68.2228 14.6915C68.2228 13.5553 68.3553 12.4475 68.6205 11.368C68.9045 10.2697 69.3779 9.29445 70.0407 8.44229C70.7035 7.59013 71.5746 6.9084 72.654 6.3971C73.7524 5.86686 75.1158 5.60175 76.7444 5.60175C79.1305 5.60175 80.8348 6.18879 81.8574 7.36288C82.8989 8.51804 83.4197 10.1466 83.4197 12.2486C83.4197 12.8357 83.3723 13.489 83.2776 14.2086C83.2019 14.9093 83.0409 15.6099 82.7948 16.3106C82.5675 17.0113 82.2456 17.693 81.829 18.3558C81.4313 19.0186 80.92 19.6056 80.2951 20.1169C79.6702 20.6282 78.9127 21.0354 78.0226 21.3384C77.1515 21.6413 76.1195 21.7928 74.9265 21.7928ZM76.2615 9.37967C75.5419 9.37967 74.9643 9.56904 74.5288 9.94778C74.1122 10.3076 73.7902 10.7526 73.563 11.2828C73.3547 11.7941 73.2127 12.3433 73.1369 12.9303C73.0801 13.4985 73.0517 13.9813 73.0517 14.379C73.0517 15.6289 73.2505 16.5473 73.6482 17.1343C74.0459 17.7214 74.614 18.0149 75.3525 18.0149C76.0153 18.0149 76.555 17.8066 76.9716 17.39C77.4072 16.9734 77.7386 16.4716 77.9658 15.8845C78.212 15.2975 78.373 14.682 78.4487 14.0382C78.5434 13.3943 78.5908 12.8546 78.5908 12.419C78.5908 11.4722 78.4109 10.7337 78.0511 10.2034C77.7102 9.65425 77.1137 9.37967 76.2615 9.37967Z" fill="black"/>
<path d="M90.4545 16.3958C90.3976 17.2669 90.3314 18.1001 90.2556 18.8955C90.1799 19.6719 90.1231 20.3536 90.0852 20.9407C90.0663 21.1679 90.0189 21.3194 89.9432 21.3952C89.8674 21.4709 89.7065 21.5088 89.4603 21.5088H88.4377C87.8506 21.5088 87.3677 21.452 86.989 21.3384C86.6292 21.2058 86.3357 21.0259 86.1084 20.7986C85.9001 20.5714 85.7486 20.2968 85.6539 19.9749C85.5782 19.634 85.5403 19.2458 85.5403 18.8103C85.5403 18.5262 85.5498 18.1285 85.5687 17.6172C85.6066 17.087 85.6634 16.3674 85.7392 15.4584C85.8149 14.5305 85.9001 13.3659 85.9948 11.9646C86.1084 10.5443 86.241 8.79262 86.3925 6.70956C86.4114 6.29294 86.4588 6.04676 86.5345 5.97102C86.5913 5.91421 86.7428 5.8858 86.989 5.8858H88.0968C88.6649 5.8858 89.1289 5.95208 89.4887 6.08464C89.8485 6.2172 90.142 6.38763 90.3692 6.59594C90.5965 6.80424 90.7575 7.05042 90.8521 7.33448C90.9468 7.61853 91.0036 7.91205 91.0226 8.21504C91.5717 7.19245 92.1967 6.50125 92.8973 6.14145C93.598 5.78165 94.4218 5.60175 95.3686 5.60175C95.8799 5.60175 96.3723 5.64909 96.8457 5.74377C97.3191 5.83846 97.7452 5.99942 98.1239 6.22666C98.5027 6.45391 98.8246 6.7569 99.0897 7.13564C99.3548 7.49544 99.5442 7.9594 99.6578 8.5275C100.245 7.42916 100.889 6.67168 101.589 6.25507C102.29 5.81952 103.171 5.60175 104.231 5.60175C104.818 5.60175 105.377 5.66803 105.907 5.80058C106.456 5.9142 106.93 6.12251 107.327 6.4255C107.725 6.72849 108.037 7.14511 108.265 7.67534C108.511 8.18664 108.634 8.8305 108.634 9.60691C108.634 10.194 108.606 10.9136 108.549 11.7657C108.492 12.6179 108.426 13.5458 108.35 14.5495C108.274 15.5342 108.189 16.5568 108.094 17.6172C108 18.6588 107.924 19.6624 107.867 20.6282C107.848 20.8365 107.829 20.9975 107.81 21.1111C107.791 21.2247 107.753 21.3099 107.697 21.3668C107.659 21.4236 107.592 21.4614 107.498 21.4804C107.403 21.4993 107.27 21.5088 107.1 21.5088H106.191C105.585 21.5088 105.093 21.452 104.714 21.3384C104.335 21.2247 104.042 21.0638 103.833 20.8555C103.625 20.6472 103.474 20.3915 103.379 20.0885C103.303 19.7666 103.265 19.4068 103.265 19.0091C103.265 18.7629 103.275 18.4126 103.294 17.9581C103.332 17.5036 103.369 17.0113 103.407 16.481C103.464 15.9508 103.511 15.4016 103.549 14.8335C103.606 14.2654 103.654 13.7446 103.691 13.2712C103.748 12.7789 103.786 12.3528 103.805 11.993C103.843 11.6332 103.862 11.3965 103.862 11.2828C103.862 10.7905 103.758 10.3549 103.549 9.97618C103.36 9.59744 102.981 9.40807 102.413 9.40807C101.921 9.40807 101.495 9.56904 101.135 9.89097C100.775 10.2129 100.472 10.6579 100.226 11.226C99.9797 11.7941 99.7809 12.4664 99.6294 13.2428C99.4779 14.0192 99.3738 14.8619 99.317 15.7709C99.2791 16.3579 99.2317 17.0302 99.1749 17.7877C99.1181 18.5452 99.0518 19.492 98.9761 20.6282C98.9572 20.8365 98.9382 20.9975 98.9193 21.1111C98.9003 21.2247 98.8625 21.3099 98.8057 21.3668C98.7678 21.4236 98.7015 21.4614 98.6068 21.4804C98.5121 21.4993 98.3796 21.5088 98.2091 21.5088H97.3002C96.6942 21.5088 96.2018 21.452 95.8231 21.3384C95.4444 21.2247 95.1508 21.0638 94.9425 20.8555C94.7342 20.6472 94.5827 20.3915 94.488 20.0885C94.4123 19.7666 94.3744 19.4068 94.3744 19.0091C94.3744 18.6304 94.4028 18.0812 94.4596 17.3616C94.5354 16.6231 94.6017 15.8656 94.6585 15.0892C94.7342 14.2938 94.8005 13.5458 94.8573 12.8451C94.9331 12.1255 94.9709 11.6048 94.9709 11.2828C94.9709 10.7905 94.8668 10.3549 94.6585 9.97618C94.4691 9.59744 94.0904 9.40807 93.5222 9.40807C93.0109 9.40807 92.5754 9.59744 92.2156 9.97618C91.8558 10.3549 91.5528 10.8662 91.3066 11.5101C91.0794 12.135 90.89 12.8735 90.7385 13.7257C90.606 14.5779 90.5113 15.4679 90.4545 16.3958Z" fill="black"/>
<path d="M43.7748 55.5088C42.7143 55.5088 41.9568 55.3005 41.5024 54.8839C41.0479 54.4673 40.8206 53.8707 40.8206 53.0943C40.8206 52.6777 40.8585 51.9392 40.9342 50.8787C41.01 49.8182 41.0952 48.6252 41.1899 47.2996H36.1337L35.5656 55.0827C35.5467 55.2342 35.5088 55.3478 35.452 55.4236C35.3952 55.4804 35.2816 55.5088 35.1111 55.5088H33.5488C32.4884 55.5088 31.7309 55.3005 31.2764 54.8839C30.8219 54.4673 30.5947 53.8707 30.5947 53.0943C30.5947 52.7156 30.6231 52.0717 30.6799 51.1628C30.7367 50.2348 30.8124 49.1838 30.9071 48.0098C31.0018 46.8357 31.0965 45.5953 31.1912 44.2886C31.2859 42.982 31.3806 41.7511 31.4752 40.5959C31.5699 39.4408 31.6457 38.4277 31.7025 37.5566C31.7593 36.6855 31.7877 36.0889 31.7877 35.767C31.7877 35.483 31.9392 35.3409 32.2422 35.3409H33.8045C34.9596 35.3409 35.7361 35.5871 36.1337 36.0795C36.5314 36.5718 36.7302 37.3009 36.7302 38.2667C36.7302 38.4182 36.7018 38.9579 36.645 39.8858C36.5882 40.7948 36.5125 41.8931 36.4178 43.1808H41.5024C41.5592 42.3476 41.616 41.5333 41.6728 40.738C41.7485 39.9426 41.8053 39.2135 41.8432 38.5507C41.9 37.888 41.9379 37.3198 41.9568 36.8464C41.9947 36.3541 42.0137 35.9943 42.0137 35.767C42.0137 35.483 42.1651 35.3409 42.4681 35.3409H44.0304C45.1856 35.3409 45.962 35.5871 46.3597 36.0795C46.7574 36.5718 46.9562 37.3009 46.9562 38.2667C46.9562 38.3614 46.9373 38.6644 46.8994 39.1757C46.8805 39.687 46.8426 40.3308 46.7858 41.1072C46.729 41.8837 46.6627 42.7547 46.5869 43.7205C46.5301 44.6674 46.4638 45.6426 46.3881 46.6463C46.3313 47.65 46.265 48.6347 46.1893 49.6005C46.1324 50.5473 46.0756 51.4089 46.0188 52.1853C45.962 52.9618 45.9147 53.6151 45.8768 54.1453C45.8389 54.6566 45.8105 54.9691 45.7916 55.0827C45.7726 55.2342 45.7348 55.3478 45.678 55.4236C45.6211 55.4804 45.5075 55.5088 45.3371 55.5088H43.7748Z" fill="black"/>
<path d="M52.3768 55.5088C51.7897 55.5088 51.3068 55.452 50.9281 55.3384C50.5683 55.2058 50.2748 55.0259 50.0475 54.7986C49.8392 54.5714 49.6877 54.2968 49.593 53.9749C49.5173 53.634 49.4794 53.2458 49.4794 52.8103C49.4794 52.5262 49.4889 52.1285 49.5078 51.6172C49.5457 51.087 49.6025 50.3674 49.6782 49.4584C49.754 48.5305 49.8392 47.3659 49.9339 45.9646C50.0475 44.5443 50.1801 42.7926 50.3316 40.7096C50.3505 40.2929 50.3978 40.0468 50.4736 39.971C50.5304 39.9142 50.6819 39.8858 50.9281 39.8858H52.0359C52.6229 39.8858 53.0964 39.9426 53.4562 40.0562C53.8349 40.1699 54.1284 40.3403 54.3367 40.5675C54.564 40.7948 54.7155 41.0694 54.7912 41.3913C54.8859 41.7132 54.9332 42.073 54.9332 42.4707C54.9332 42.7547 54.9143 43.1808 54.8764 43.7489C54.8386 44.317 54.7818 45.0935 54.706 46.0782C54.6492 47.044 54.564 48.2559 54.4504 49.7141C54.3367 51.1533 54.1947 52.8955 54.0243 54.9407C54.0053 55.1679 53.958 55.3194 53.8822 55.3952C53.8065 55.4709 53.6455 55.5088 53.3994 55.5088H52.3768ZM50.36 36.534C50.36 35.7765 50.6346 35.18 51.1837 34.7444C51.7329 34.3089 52.4714 34.0911 53.3994 34.0911C54.2136 34.0911 54.8007 34.2615 55.1605 34.6024C55.5392 34.9243 55.7286 35.3599 55.7286 35.909C55.7286 36.6097 55.4635 37.1968 54.9332 37.6702C54.4219 38.1247 53.6645 38.3519 52.6608 38.3519C51.1269 38.3519 50.36 37.7459 50.36 36.534Z" fill="black"/>
<path d="M64.0585 39.6017C65.6681 39.6017 66.8517 39.9237 67.6092 40.5675C68.3666 41.1925 68.7454 41.9973 68.7454 42.982C68.7454 43.8152 68.4803 44.4496 67.95 44.8852C67.4387 45.3207 66.6907 45.5385 65.706 45.5385C65.4409 45.5385 65.261 45.5101 65.1663 45.4533C65.0716 45.3965 65.0243 45.2923 65.0243 45.1408C65.0243 44.9704 65.0053 44.781 64.9675 44.5727C64.9485 44.3455 64.8822 44.1371 64.7686 43.9478C64.6739 43.7395 64.513 43.569 64.2857 43.4365C64.0774 43.3039 63.7744 43.2376 63.3768 43.2376C62.8465 43.2376 62.4204 43.3702 62.0985 43.6353C61.7766 43.8815 61.6156 44.194 61.6156 44.5727C61.6156 44.9704 61.7766 45.2923 62.0985 45.5385C62.4394 45.7657 62.856 45.9835 63.3484 46.1918C63.8596 46.4001 64.4088 46.6179 64.9959 46.8451C65.5829 47.0534 66.1226 47.3375 66.615 47.6973C67.1263 48.0571 67.5429 48.5116 67.8648 49.0608C68.2057 49.591 68.3761 50.2822 68.3761 51.1343C68.3761 52.4978 67.8932 53.6151 66.9274 54.4862C65.9617 55.3573 64.513 55.7928 62.5814 55.7928C62.0512 55.7928 61.4357 55.7455 60.7351 55.6508C60.0533 55.5751 59.4 55.452 58.7751 55.2815C58.1502 55.0922 57.6199 54.846 57.1844 54.543C56.7678 54.24 56.5595 53.8613 56.5595 53.4068C56.5595 53.2364 56.5879 53.028 56.6447 52.7819C56.7204 52.5357 56.8246 52.299 56.9571 52.0717C57.1086 51.8445 57.2791 51.6551 57.4684 51.5036C57.6767 51.3332 57.9229 51.248 58.207 51.248C58.4342 51.248 58.6425 51.3048 58.8319 51.4184C59.0213 51.532 59.239 51.6551 59.4852 51.7877C59.7503 51.9013 60.0723 52.0149 60.451 52.1285C60.8297 52.2422 61.3316 52.299 61.9565 52.299C62.4299 52.299 62.8465 52.2422 63.2063 52.1285C63.5851 52.0149 63.7744 51.7593 63.7744 51.3616C63.7744 51.0018 63.6229 50.7177 63.3199 50.5094C63.017 50.2822 62.6287 50.0739 62.1553 49.8845C61.7008 49.6951 61.199 49.4963 60.6498 49.288C60.1196 49.0608 59.6178 48.7672 59.1443 48.4074C58.6899 48.0476 58.3111 47.5931 58.0081 47.044C57.7051 46.4759 57.5536 45.7468 57.5536 44.8568C57.5536 43.891 57.743 43.0767 58.1217 42.4139C58.5194 41.7322 59.0213 41.183 59.6272 40.7664C60.2522 40.3498 60.9528 40.0562 61.7292 39.8858C62.5057 39.6964 63.2821 39.6017 64.0585 39.6017Z" fill="black"/>
<path d="M76.89 43.7205C76.8332 44.4401 76.7669 45.1503 76.6911 45.8509C76.6343 46.5516 76.5775 47.2144 76.5207 47.8393C76.4639 48.4642 76.4166 49.0229 76.3787 49.5152C76.3597 50.0076 76.3503 50.3863 76.3503 50.6515C76.3503 51.1438 76.4071 51.4752 76.5207 51.6456C76.6343 51.7971 76.8237 51.8729 77.0888 51.8729C77.2971 51.8729 77.477 51.835 77.6285 51.7593C77.78 51.6835 77.922 51.5983 78.0546 51.5036C78.1872 51.4089 78.3008 51.3237 78.3955 51.248C78.5091 51.1722 78.6322 51.1343 78.7647 51.1343C78.8973 51.1343 79.0204 51.2101 79.134 51.3616C79.2476 51.5131 79.3044 51.8634 79.3044 52.4126C79.3044 53.4541 79.0204 54.2779 78.4523 54.8839C77.8842 55.4898 76.9089 55.7928 75.5265 55.7928C74.1631 55.7928 73.1499 55.4804 72.4871 54.8555C71.8433 54.2116 71.5214 53.2364 71.5214 51.9297C71.5214 51.6456 71.5308 51.3143 71.5498 50.9355C71.5876 50.5378 71.635 50.0265 71.6918 49.4016C71.7486 48.7767 71.8149 48.0098 71.8906 47.1008C71.9853 46.1918 72.08 45.0651 72.1747 43.7205H70.6692C70.5177 43.7205 70.423 43.6921 70.3851 43.6353C70.3662 43.5596 70.3567 43.4554 70.3567 43.3229L70.442 41.8742C70.4609 41.628 70.4893 41.3913 70.5272 41.164C70.584 40.9179 70.6787 40.7001 70.8112 40.5107C70.9627 40.3213 71.171 40.1699 71.4361 40.0562C71.7013 39.9426 72.0516 39.8858 72.4871 39.8858C72.6197 39.5449 72.7712 39.1378 72.9416 38.6644C73.1121 38.1909 73.2825 37.7365 73.4529 37.3009C73.6234 36.8464 73.7843 36.4677 73.9358 36.1647C74.1063 35.8617 74.2577 35.7102 74.3903 35.7102H75.2141C76.0094 35.7102 76.5586 35.9564 76.8616 36.4487C77.1646 36.9411 77.3161 37.5282 77.3161 38.2099C77.3161 38.5886 77.2877 39.1473 77.2309 39.8858H80.2134C80.5164 39.8858 80.6679 40.0184 80.6679 40.2835L80.5543 41.8174C80.5164 42.3855 80.3554 42.8494 80.0714 43.2092C79.8063 43.5501 79.2476 43.7205 78.3955 43.7205H76.89Z" fill="black"/>
<path d="M88.297 55.7928C86.9903 55.7928 85.9014 55.6129 85.0303 55.2531C84.1782 54.8744 83.4965 54.3631 82.9852 53.7192C82.4739 53.0754 82.1141 52.3274 81.9057 51.4752C81.6974 50.6041 81.5933 49.6762 81.5933 48.6915C81.5933 47.5553 81.7258 46.4475 81.991 45.368C82.275 44.2697 82.7484 43.2944 83.4112 42.4423C84.074 41.5901 84.9451 40.9084 86.0245 40.3971C87.1229 39.8669 88.4863 39.6017 90.1149 39.6017C92.501 39.6017 94.2053 40.1888 95.2279 41.3629C96.2694 42.518 96.7902 44.1466 96.7902 46.2486C96.7902 46.8357 96.7428 47.489 96.6482 48.2086C96.5724 48.9093 96.4115 49.6099 96.1653 50.3106C95.938 51.0113 95.6161 51.693 95.1995 52.3558C94.8018 53.0186 94.2905 53.6056 93.6656 54.1169C93.0407 54.6282 92.2832 55.0354 91.3932 55.3384C90.5221 55.6413 89.49 55.7928 88.297 55.7928ZM89.632 43.3797C88.9124 43.3797 88.3348 43.569 87.8993 43.9478C87.4827 44.3076 87.1608 44.7526 86.9335 45.2828C86.7252 45.7941 86.5832 46.3433 86.5074 46.9303C86.4506 47.4985 86.4222 47.9813 86.4222 48.379C86.4222 49.6289 86.621 50.5473 87.0187 51.1343C87.4164 51.7214 87.9845 52.0149 88.7231 52.0149C89.3858 52.0149 89.9256 51.8066 90.3422 51.39C90.7777 50.9734 91.1091 50.4716 91.3363 49.8845C91.5825 49.2975 91.7435 48.682 91.8192 48.0382C91.9139 47.3943 91.9613 46.8546 91.9613 46.419C91.9613 45.4722 91.7814 44.7337 91.4216 44.2034C91.0807 43.6543 90.4842 43.3797 89.632 43.3797Z" fill="black"/>
<path d="M108.086 46.6747C107.972 46.6747 107.84 46.6747 107.688 46.6747C107.556 46.6558 107.423 46.6368 107.29 46.6179C107.158 46.58 107.044 46.5421 106.95 46.5043C106.855 46.4475 106.808 46.3812 106.808 46.3054C106.808 46.0592 106.817 45.832 106.836 45.6237C106.855 45.4154 106.864 45.1976 106.864 44.9704C106.864 44.5538 106.808 44.2129 106.694 43.9478C106.58 43.6827 106.353 43.5501 106.012 43.5501C105.482 43.5501 105.037 43.9004 104.677 44.6011C104.336 45.2828 104.119 46.3149 104.024 47.6973C103.986 48.3033 103.929 48.9945 103.853 49.7709C103.797 50.5284 103.74 51.2669 103.683 51.9865C103.626 52.6872 103.579 53.3121 103.541 53.8613C103.503 54.4104 103.484 54.7702 103.484 54.9407C103.484 55.13 103.418 55.2721 103.285 55.3668C103.153 55.4614 103.011 55.5088 102.859 55.5088H101.837C101.25 55.5088 100.767 55.452 100.388 55.3384C100.028 55.2058 99.7346 55.0259 99.5074 54.7986C99.299 54.5714 99.1475 54.2968 99.0529 53.9749C98.9771 53.634 98.9392 53.2458 98.9392 52.8103C98.9392 52.5262 98.9487 52.1285 98.9677 51.6172C99.0055 51.087 99.0623 50.3674 99.1381 49.4584C99.2138 48.5305 99.299 47.3659 99.3937 45.9646C99.5074 44.5443 99.6399 42.7926 99.7914 40.7096C99.8293 40.1604 100.028 39.8858 100.388 39.8858H101.496C102.026 39.8858 102.471 39.9426 102.831 40.0562C103.191 40.1699 103.484 40.3308 103.711 40.5391C103.939 40.7285 104.1 40.9557 104.194 41.2209C104.308 41.486 104.384 41.7606 104.421 42.0446C104.649 41.6091 104.914 41.2398 105.217 40.9368C105.539 40.6149 105.87 40.3592 106.211 40.1699C106.552 39.9615 106.902 39.8195 107.262 39.7438C107.622 39.6491 107.953 39.6017 108.256 39.6017C108.616 39.6017 108.976 39.668 109.336 39.8006C109.714 39.9331 110.055 40.132 110.358 40.3971C110.661 40.6622 110.898 41.0031 111.068 41.4197C111.258 41.8363 111.352 42.3287 111.352 42.8968C111.352 43.4081 111.277 43.891 111.125 44.3455C110.974 44.7999 110.756 45.2071 110.472 45.5669C110.188 45.9078 109.837 46.1823 109.421 46.3906C109.023 46.58 108.578 46.6747 108.086 46.6747Z" fill="black"/>
<path d="M117.929 42.4991C117.929 42.9346 117.9 43.4554 117.843 44.0614C117.787 44.6484 117.72 45.245 117.645 45.8509C117.588 46.438 117.531 46.9966 117.474 47.5269C117.417 48.0382 117.389 48.4358 117.389 48.7199C117.389 49.4395 117.559 49.9792 117.9 50.339C118.26 50.6799 118.696 50.8503 119.207 50.8503C120.097 50.8503 120.807 50.3863 121.337 49.4584C121.868 48.5305 122.199 47.2996 122.332 45.7657L122.786 40.4539C122.805 40.2456 122.871 40.1036 122.985 40.0278C123.117 39.9331 123.259 39.8858 123.411 39.8858H124.434C124.831 39.8858 125.201 39.9237 125.541 39.9994C125.901 40.0562 126.214 40.1793 126.479 40.3687C126.744 40.5391 126.952 40.7758 127.104 41.0788C127.255 41.3818 127.331 41.77 127.331 42.2435C127.331 42.4328 127.312 42.7926 127.274 43.3229C127.255 43.8342 127.208 44.5822 127.132 45.5669C127.075 46.5327 126.99 47.7636 126.876 49.2596C126.763 50.7367 126.63 52.5452 126.479 54.685C126.384 55.9349 126.1 56.9669 125.627 57.7812C125.172 58.6144 124.595 59.2678 123.894 59.7412C123.193 60.2336 122.407 60.5744 121.536 60.7638C120.665 60.9532 119.775 61.0478 118.866 61.0478C117.9 61.0478 117.01 60.9626 116.196 60.7922C115.401 60.6218 114.709 60.385 114.122 60.0821C113.535 59.7791 113.071 59.4287 112.731 59.0311C112.409 58.6334 112.248 58.2073 112.248 57.7528C112.248 57.393 112.323 57.0806 112.475 56.8154C112.645 56.5503 112.863 56.3325 113.128 56.1621C113.393 55.9917 113.696 55.8591 114.037 55.7644C114.397 55.6887 114.766 55.6508 115.145 55.6508C115.334 55.6508 115.467 55.7455 115.543 55.9349C115.637 56.1242 115.77 56.3325 115.94 56.5598C116.13 56.806 116.423 57.0237 116.821 57.2131C117.219 57.4025 117.815 57.4972 118.61 57.4972C119.311 57.4972 119.879 57.3267 120.315 56.9859C120.75 56.645 121.082 56.2095 121.309 55.6792C121.555 55.149 121.716 54.5714 121.792 53.9465C121.868 53.3216 121.905 52.7251 121.905 52.1569C121.602 52.6872 121.262 53.1227 120.883 53.4636C120.523 53.7855 120.144 54.0412 119.747 54.2305C119.349 54.401 118.951 54.5146 118.554 54.5714C118.156 54.6282 117.777 54.6566 117.417 54.6566C116.717 54.6566 116.073 54.5619 115.486 54.3726C114.918 54.1832 114.425 53.8802 114.009 53.4636C113.592 53.028 113.27 52.4694 113.043 51.7877C112.816 51.1059 112.702 50.2822 112.702 49.3164C112.702 48.9566 112.721 48.4832 112.759 47.8961C112.797 47.2901 112.844 46.6179 112.901 45.8793C112.958 45.1219 113.015 44.3076 113.071 43.4365C113.147 42.5654 113.223 41.6753 113.299 40.7664C113.337 40.1793 113.602 39.8858 114.094 39.8858H115.003C115.609 39.8858 116.101 39.9426 116.48 40.0562C116.859 40.1699 117.152 40.3403 117.361 40.5675C117.588 40.7758 117.739 41.0504 117.815 41.3913C117.891 41.7132 117.929 42.0825 117.929 42.4991Z" fill="black"/>
</svg>
